<svg width="300" height="300" viewBox="0 0 300 300" fill="none" xmlns="http://www.w3.org/2000/svg">
<path fill-rule="evenodd" clip-rule="evenodd" d="M4.78397 0.265381L18.4227 13.5424L33.7675 27.9813L56.9865 6.18421L57.216 5.96878L57.5275 5.92363L79.6644 2.71519L80.1237 2.64863L80.471 2.95638L80.477 2.96171L108.372 27.6772L128.673 9.31085L128.91 9.09625L129.228 9.05916L155.06 6.04334L155.505 5.99137L155.84 6.28903L179.62 27.4169L198.396 9.33217L198.644 9.093L198.987 9.05767L228.263 6.04185L228.681 5.9988L229.005 6.26719L251.544 24.9797L266.829 9.35316L267.085 9.09189L267.448 9.05698L298.877 6.04116L299.973 5.93604V7.03659V99.3207V100.321H298.973H125.687V100.55H123.687V100.321H1.47704H0.477039V99.3207V33.5278C0.388411 32.9647 0.341667 32.3793 0.341667 31.7785C0.341667 31.1777 0.388411 30.5923 0.477039 30.0293V7.03659V6.71631L0.663113 6.45562L3.78409 2.08319L3.38888 1.69847L4.78397 0.265381ZM5.06994 3.72427L17.0398 14.9874L33.2694 30.7867H32.6621V98.3207H16.2648V59.9851H2.47704V38.0481C3.44774 39.1442 4.67862 39.7996 6.01782 39.7996C9.15267 39.7996 11.694 36.2084 11.694 31.7785C11.694 27.3486 9.15267 23.7574 6.01782 23.7574C4.67862 23.7574 3.44774 24.4128 2.47704 25.509V7.35687L5.06994 3.72427ZM34.6621 98.3207V32.1425L40.4757 37.8019L39.973 38.2548L41.3119 39.7405L41.9118 39.1999L42.533 39.8047L43.9281 38.3716L43.4008 37.8582L47.7611 33.929V98.3207H34.6621ZM34.9411 29.6228L41.9646 36.4601L76.6915 5.16698L58.1258 7.8578L34.9411 29.6228ZM168.492 98.3207H182.789V33.5679L154.971 8.5528L125.687 34.4378V98.3207H140.656V59.9851H154.574V98.3207H155.444V59.9851H168.492V98.3207ZM123.687 36.2057L119.674 39.7535L119.005 40.3444L118.342 39.7474L111.451 33.5425V98.3207H123.687V36.2057ZM109.451 98.3207V32H109.738L79.8081 5.05073L49.7611 32.1268V98.3207H64.5456V59.3343H78.4635V98.3207H79.3331V59.3343H92.3812V98.3207H109.451ZM180.783 29.074L191.992 39.1534L227.064 8.17599L199.535 11.0118L180.783 29.074ZM251.891 27.4851L264.862 39.1226L296.354 8.2925L268.003 11.0129L252.329 27.0371L251.891 27.4851ZM297.973 9.50635L273.226 33.7335V98.3207H286.051V59.3343H297.973V9.50635ZM271.226 98.3207V35.6915L265.592 41.2074L264.922 41.8631L264.224 41.2372L257.695 35.3797V98.3207H271.226ZM255.695 98.3207V33.5854L228.719 9.38265L199.457 35.2283V98.3207H255.695ZM197.457 98.3207V36.9948L192.648 41.2423L191.98 41.8323L191.317 41.2364L184.789 35.3663V98.3207H197.457ZM119.018 37.6642L152.124 8.39969L129.778 11.0086L109.644 29.2239L119.018 37.6642ZM85.4839 31.7785C85.4839 36.2084 82.9426 39.7996 79.8078 39.7996C76.673 39.7996 74.1317 36.2084 74.1317 31.7785C74.1317 27.3486 76.673 23.7574 79.8078 23.7574C82.9426 23.7574 85.4839 27.3486 85.4839 31.7785ZM160.409 31.7785C160.409 36.2084 157.868 39.7996 154.733 39.7996C151.598 39.7996 149.057 36.2084 149.057 31.7785C149.057 27.3486 151.598 23.7574 154.733 23.7574C157.868 23.7574 160.409 27.3486 160.409 31.7785ZM228.523 39.7996C231.658 39.7996 234.199 36.2084 234.199 31.7785C234.199 27.3486 231.658 23.7574 228.523 23.7574C225.388 23.7574 222.847 27.3486 222.847 31.7785C222.847 36.2084 225.388 39.7996 228.523 39.7996ZM297.772 39.7996C297.026 39.7996 296.288 39.5921 295.6 39.189C294.911 38.7859 294.285 38.1951 293.758 37.4503C293.231 36.7055 292.813 35.8212 292.528 34.8481C292.243 33.8749 292.096 32.8319 292.096 31.7785C292.096 30.7252 292.243 29.6821 292.528 28.709C292.813 27.7358 293.231 26.8516 293.758 26.1067C294.285 25.3619 294.911 24.7711 295.6 24.368C296.288 23.9649 297.026 23.7574 297.772 23.7574V31.7785V39.7996ZM242 58.4405H228.952V97.7759H242V58.4405ZM228.103 58.4405H214.185V97.7759H228.103V58.4405Z" fill="#7D9D9C"/>
<path fill-rule="evenodd" clip-rule="evenodd" d="M4.78397 98.6055L18.4227 111.883L33.7675 126.321L56.9865 104.524L57.216 104.309L57.5275 104.264L79.6644 101.055L80.1237 100.989L80.471 101.296L80.477 101.302L108.372 126.017L128.673 107.651L128.91 107.436L129.228 107.399L155.06 104.383L155.505 104.331L155.84 104.629L179.62 125.757L198.396 107.672L198.644 107.433L198.987 107.398L228.263 104.382L228.681 104.339L229.005 104.607L251.544 123.32L266.829 107.693L267.085 107.432L267.448 107.397L298.877 104.381L299.973 104.276V105.377V197.661V198.661H298.973H125.687V198.89H123.687V198.661H1.47704H0.477039V197.661V131.868C0.388411 131.305 0.341667 130.719 0.341667 130.119C0.341667 129.518 0.388411 128.932 0.477039 128.369V105.377V105.056L0.663113 104.796L3.78409 100.423L3.38888 100.039L4.78397 98.6055ZM5.06994 102.064L17.0398 113.327L33.2694 129.127H32.6621V196.661H16.2648V158.325H2.47704V136.388C3.44774 137.484 4.67862 138.14 6.01782 138.14C9.15267 138.14 11.694 134.549 11.694 130.119C11.694 125.689 9.15267 122.098 6.01782 122.098C4.67862 122.098 3.44774 122.753 2.47704 123.849V105.697L5.06994 102.064ZM34.6621 196.661V130.483L40.4757 136.142L39.973 136.595L41.3119 138.081L41.9118 137.54L42.533 138.145L43.9281 136.712L43.4008 136.198L47.7611 132.269V196.661H34.6621ZM34.9411 127.963L41.9646 134.8L76.6915 103.507L58.1258 106.198L34.9411 127.963ZM168.492 196.661H182.789V131.908L154.971 106.893L125.687 132.778V196.661H140.656V158.325H154.574V196.661H155.444V158.325H168.492V196.661ZM123.687 134.546L119.674 138.094L119.005 138.684L118.342 138.088L111.451 131.883V196.661H123.687V134.546ZM109.451 196.661V130.34H109.738L79.8081 103.391L49.7611 130.467V196.661H64.5456V157.674H78.4635V196.661H79.3331V157.674H92.3812V196.661H109.451ZM180.783 127.414L191.992 137.493L227.064 106.516L199.535 109.352L180.783 127.414ZM251.891 125.825L264.862 137.463L296.354 106.633L268.003 109.353L252.329 125.377L251.891 125.825ZM297.973 107.846L273.226 132.074V196.661H286.051V157.674H297.973V107.846ZM271.226 196.661V134.032L265.592 139.547L264.922 140.203L264.224 139.577L257.695 133.72V196.661H271.226ZM255.695 196.661V131.925L228.719 107.723L199.457 133.568V196.661H255.695ZM197.457 196.661V135.335L192.648 139.582L191.98 140.172L191.317 139.577L184.789 133.706V196.661H197.457ZM119.018 136.004L152.124 106.74L129.778 109.349L109.644 127.564L119.018 136.004ZM85.4839 130.119C85.4839 134.549 82.9426 138.14 79.8078 138.14C76.673 138.14 74.1317 134.549 74.1317 130.119C74.1317 125.689 76.673 122.098 79.8078 122.098C82.9426 122.098 85.4839 125.689 85.4839 130.119ZM160.409 130.119C160.409 134.549 157.868 138.14 154.733 138.14C151.598 138.14 149.057 134.549 149.057 130.119C149.057 125.689 151.598 122.098 154.733 122.098C157.868 122.098 160.409 125.689 160.409 130.119ZM228.523 138.14C231.658 138.14 234.199 134.549 234.199 130.119C234.199 125.689 231.658 122.098 228.523 122.098C225.388 122.098 222.847 125.689 222.847 130.119C222.847 134.549 225.388 138.14 228.523 138.14ZM297.772 138.14C297.026 138.14 296.288 137.932 295.6 137.529C294.911 137.126 294.285 136.535 293.758 135.79C293.231 135.046 292.813 134.161 292.528 133.188C292.243 132.215 292.096 131.172 292.096 130.119C292.096 129.065 292.243 128.022 292.528 127.049C292.813 126.076 293.231 125.192 293.758 124.447C294.285 123.702 294.911 123.111 295.6 122.708C296.288 122.305 297.026 122.098 297.772 122.098V130.119V138.14ZM242 156.781H228.952V196.116H242V156.781ZM228.103 156.781H214.185V196.116H228.103V156.781Z" fill="#576F72"/>
<path fill-rule="evenodd" clip-rule="evenodd" d="M4.78397 199.716L18.4227 212.993L33.7675 227.432L56.9865 205.635L57.216 205.419L57.5275 205.374L79.6644 202.166L80.1237 202.099L80.471 202.407L80.477 202.412L108.372 227.128L128.673 208.761L128.91 208.547L129.228 208.51L155.06 205.494L155.505 205.442L155.84 205.739L179.62 226.867L198.396 208.783L198.644 208.543L198.987 208.508L228.263 205.492L228.681 205.449L229.005 205.718L251.544 224.43L266.829 208.804L267.085 208.542L267.448 208.507L298.877 205.492L299.973 205.386V206.487V298.771V299.771H298.973H125.687V300H123.687V299.771H1.47704H0.477039V298.771V232.978C0.388411 232.415 0.341667 231.83 0.341667 231.229C0.341667 230.628 0.388411 230.043 0.477039 229.48V206.487V206.167L0.663113 205.906L3.78409 201.534L3.38888 201.149L4.78397 199.716ZM5.06994 203.175L17.0398 214.438L33.2694 230.237H32.6621V297.771H16.2648V259.435H2.47704V237.498C3.44774 238.595 4.67862 239.25 6.01782 239.25C9.15267 239.25 11.694 235.659 11.694 231.229C11.694 226.799 9.15267 223.208 6.01782 223.208C4.67862 223.208 3.44774 223.863 2.47704 224.959V206.807L5.06994 203.175ZM34.6621 297.771V231.593L40.4757 237.252L39.973 237.705L41.3119 239.191L41.9118 238.65L42.533 239.255L43.9281 237.822L43.4008 237.309L47.7611 233.379V297.771H34.6621ZM34.9411 229.073L41.9646 235.911L76.6915 204.617L58.1258 207.308L34.9411 229.073ZM168.492 297.771H182.789V233.018L154.971 208.003L125.687 233.888V297.771H140.656V259.435H154.574V297.771H155.444V259.435H168.492V297.771ZM123.687 235.656L119.674 239.204L119.005 239.795L118.342 239.198L111.451 232.993V297.771H123.687V235.656ZM109.451 297.771V231.45H109.738L79.8081 204.501L49.7611 231.577V297.771H64.5456V258.785H78.4635V297.771H79.3331V258.785H92.3812V297.771H109.451ZM180.783 228.524L191.992 238.604L227.064 207.626L199.535 210.462L180.783 228.524ZM251.891 226.936L264.862 238.573L296.354 207.743L268.003 210.463L252.329 226.488L251.891 226.936ZM297.973 208.957L273.226 233.184V297.771H286.051V258.785H297.973V208.957ZM271.226 297.771V235.142L265.592 240.658L264.922 241.314L264.224 240.688L257.695 234.83V297.771H271.226ZM255.695 297.771V233.036L228.719 208.833L199.457 234.679V297.771H255.695ZM197.457 297.771V236.445L192.648 240.693L191.98 241.283L191.317 240.687L184.789 234.817V297.771H197.457ZM119.018 237.115L152.124 207.85L129.778 210.459L109.644 228.674L119.018 237.115ZM85.4839 231.229C85.4839 235.659 82.9426 239.25 79.8078 239.25C76.673 239.25 74.1317 235.659 74.1317 231.229C74.1317 226.799 76.673 223.208 79.8078 223.208C82.9426 223.208 85.4839 226.799 85.4839 231.229ZM160.409 231.229C160.409 235.659 157.868 239.25 154.733 239.25C151.598 239.25 149.057 235.659 149.057 231.229C149.057 226.799 151.598 223.208 154.733 223.208C157.868 223.208 160.409 226.799 160.409 231.229ZM228.523 239.25C231.658 239.25 234.199 235.659 234.199 231.229C234.199 226.799 231.658 223.208 228.523 223.208C225.388 223.208 222.847 226.799 222.847 231.229C222.847 235.659 225.388 239.25 228.523 239.25ZM297.772 239.25C297.026 239.25 296.288 239.043 295.6 238.639C294.911 238.236 294.285 237.646 293.758 236.901C293.231 236.156 292.813 235.272 292.528 234.298C292.243 233.325 292.096 232.282 292.096 231.229C292.096 230.176 292.243 229.133 292.528 228.159C292.813 227.186 293.231 226.302 293.758 225.557C294.285 224.812 294.911 224.222 295.6 223.818C296.288 223.415 297.026 223.208 297.772 223.208V231.229V239.25ZM242 257.891H228.952V297.226H242V257.891ZM228.103 257.891H214.185V297.226H228.103V257.891Z" fill="#2F4346"/>
</svg>
